<svg width="28" height="28" viewBox="0 0 28 28" fill="none" xmlns="http://www.w3.org/2000/svg">
<g clip-path="url(#clip0_31222_2862)">
<path d="M9.99618 27.6271C5.8845 27.6034 2.4834 19.2101 2.4834 14.9355C2.4834 7.95312 7.7214 6.42448 9.74009 6.42448C10.6498 6.42448 11.6212 6.78174 12.478 7.09788C13.0772 7.31841 13.6969 7.54606 14.0415 7.54606C14.2478 7.54606 14.7339 7.3524 15.1631 7.18249C16.0784 6.81811 17.2173 6.36523 18.5436 6.36523C18.546 6.36523 18.5492 6.36523 18.5515 6.36523C19.5418 6.36523 22.5446 6.58258 24.3499 9.29366L24.7728 9.92913L24.1642 10.3884C23.2948 11.0444 21.7084 12.2411 21.7084 14.6115C21.7084 17.419 23.505 18.4987 24.3681 19.018C24.7491 19.2472 25.1435 19.4836 25.1435 20.0005C25.1435 20.338 22.4498 27.5852 18.5381 27.5852C17.5809 27.5852 16.9043 27.2975 16.3075 27.0438C15.7037 26.7869 15.1828 26.5656 14.322 26.5656C13.8857 26.5656 13.334 26.7719 12.7499 26.9909C11.9517 27.2888 11.0482 27.6271 10.0231 27.6271H9.99618Z" fill="#212121"/>
<path d="M18.9583 0C19.0601 3.67327 16.4332 6.22161 13.8093 6.06179C13.3769 3.13039 16.4328 0 18.9583 0Z" fill="#212121"/>
</g>
<defs>
<clipPath id="clip0_31222_2862">
<rect width="27.6267" height="27.6267" fill="white"/>
</clipPath>
</defs>
</svg>
