<svg width="25" height="24" viewBox="0 0 25 24" fill="none" xmlns="http://www.w3.org/2000/svg">
<path d="M24.6096 5.3858C23.5393 4.6886 21.8484 3.85708 19.643 3.60338V1.82629C19.643 1.60029 19.5493 1.38282 19.3818 1.22292C18.8729 0.736816 17.0827 -0.401727 14.9476 0.149409C13.7534 0.455366 12.9632 1.13125 12.4531 1.78366C11.8839 1.13018 10.9955 0.446851 9.64286 0.144088C6.89398 -0.476341 4.87057 1.10352 4.78572 1.17175C4.58259 1.33379 4.46429 1.57366 4.46429 1.82629V3.74303C2.6674 4.09803 1.27914 4.81122 0.392857 5.38367C0.14732 5.54251 0 5.80796 0 6.09044V23.1472C0 23.4638 0.183034 23.7538 0.475458 23.9009C0.606038 23.967 0.750012 24 0.892858 24C1.0692 24 1.24443 23.9499 1.39509 23.8518C2.36049 23.2228 4.38052 22.176 7.1028 22.2933C9.42758 22.3903 11.1665 23.3103 11.9957 23.8518C12.0091 23.8603 12.0247 23.8625 12.0381 23.871C12.0693 23.8891 12.1017 23.9019 12.1352 23.9158C12.1463 23.92 12.1553 23.9264 12.1675 23.9307C12.1865 23.9382 12.2021 23.951 12.2222 23.9574C12.2267 23.9595 12.2312 23.9584 12.2356 23.9595C12.2646 23.968 12.2948 23.9691 12.3249 23.9744C12.3439 23.9776 12.3584 23.9883 12.3762 23.9904C12.4108 23.9947 12.4454 23.9968 12.48 23.9968H12.4912H12.4979H12.499H12.5001H12.5091C12.518 23.9968 12.5269 23.9947 12.537 23.9947C12.5704 23.9925 12.6028 23.9925 12.6374 23.9872C12.6541 23.9851 12.6675 23.9755 12.6843 23.9723C12.7122 23.9659 12.7401 23.9648 12.768 23.9574C12.8048 23.9467 12.8372 23.9264 12.8729 23.9104C12.9041 23.8966 12.9354 23.8849 12.9644 23.8678C12.9756 23.8614 12.9901 23.8582 13.0024 23.8508C13.8316 23.3103 15.5704 22.3903 17.8941 22.2922C20.6128 22.1792 22.6375 23.2218 23.6038 23.8508C23.7545 23.9488 23.9308 23.9989 24.106 23.9989C24.2489 23.9989 24.3929 23.9659 24.5234 23.8998C24.8158 23.7527 24.9989 23.4616 24.9989 23.1461L25 6.09047C25 5.80795 24.854 5.54463 24.6096 5.3858ZM15.411 1.79761C16.507 1.51403 17.4222 1.96178 17.8563 2.24215V18.0389C16.9925 18.1007 15.8541 18.3352 14.71 19.009C14.4511 19.1614 14.2123 19.3245 13.9924 19.494C13.8786 19.5814 13.7837 19.6752 13.6788 19.768C13.5828 19.8511 13.479 19.9321 13.3919 20.0185V3.6686C13.5337 3.29335 14.0706 2.14087 15.411 1.79761ZM6.24928 2.27732C6.77382 1.98097 7.88991 1.4991 9.23242 1.80399C10.8329 2.16325 11.4512 3.32843 11.6063 3.68449V20.2156C11.5516 20.1644 11.4914 20.1143 11.4344 20.0632C11.3998 20.0312 11.3652 20.0013 11.3295 19.9693C11.1454 19.8126 10.9478 19.6591 10.7313 19.5099C10.6911 19.4822 10.6487 19.4566 10.6085 19.4289C10.3764 19.2753 10.1331 19.125 9.86187 18.9875C8.53821 18.3031 7.22235 18.0835 6.24901 18.0334V2.27625L6.24928 2.27732ZM1.78613 21.6718V6.55733C2.45465 6.17035 3.35868 5.75354 4.46471 5.4913V18.8829C4.46471 19.1174 4.56515 19.3413 4.74372 19.5033C4.92229 19.6643 5.16001 19.7442 5.40667 19.7357C6.13324 19.6973 7.57295 19.7432 9.01381 20.4883C9.21694 20.5928 9.39998 20.7047 9.57407 20.8188C9.62206 20.8508 9.66894 20.8838 9.7147 20.9158C9.76157 20.9478 9.80063 20.9819 9.84416 21.0149C9.04953 20.7911 8.1589 20.6312 7.17899 20.5907C4.9379 20.5043 3.08755 21.0682 1.78384 21.6738L1.78613 21.6718ZM23.2147 21.6718C22.0027 21.1089 20.3219 20.5791 18.2884 20.5791C18.1344 20.5791 17.9771 20.5823 17.8186 20.5887C16.6735 20.6366 15.6512 20.8456 14.7617 21.1313C14.8331 21.0641 14.909 20.998 14.9872 20.933C15.0374 20.8925 15.082 20.8499 15.1345 20.8083C15.293 20.6868 15.4626 20.5695 15.6479 20.4608C16.8689 19.7412 18.0809 19.6975 18.6936 19.7337C18.9402 19.7518 19.1813 19.6655 19.361 19.5045C19.5418 19.3435 19.6434 19.1186 19.6434 18.883L19.6445 5.32088C21.207 5.54049 22.4391 6.10336 23.2159 6.55535V21.672L23.2147 21.6718Z" fill="#EFEFEF"/>
</svg>
