<svg width="28" height="28" viewBox="0 0 28 28" fill="none" xmlns="http://www.w3.org/2000/svg">
<path d="M25.901 14.0824C25.901 13.0886 25.8187 12.3634 25.6407 11.6113H14.061V16.0968H20.858C20.721 17.2115 19.981 18.8902 18.3366 20.0182L18.3135 20.1684L21.9748 22.948L22.2284 22.9728C24.558 20.8643 25.901 17.7621 25.901 14.0824Z" fill="#4285F4"/>
<path d="M14.0602 25.8994C17.3902 25.8994 20.1857 24.825 22.2276 22.9717L18.3358 20.0171C17.2943 20.7289 15.8965 21.2258 14.0602 21.2258C10.7988 21.2258 8.03068 19.1174 7.04392 16.2031L6.89929 16.2152L3.09227 19.1026L3.04248 19.2382C5.0706 23.1865 9.23652 25.8994 14.0602 25.8994Z" fill="#34A853"/>
<path d="M7.04501 16.203C6.78464 15.451 6.63396 14.6451 6.63396 13.8125C6.63396 12.9798 6.78464 12.1741 7.03131 11.4221L7.02441 11.2619L3.16967 8.32812L3.04355 8.38692C2.20766 10.0253 1.72803 11.8652 1.72803 13.8125C1.72803 15.7598 2.20766 17.5996 3.04355 19.2381L7.04501 16.203Z" fill="#FBBC05"/>
<path d="M14.0603 6.40004C16.3762 6.40004 17.9384 7.3804 18.8292 8.19966L22.3099 4.8691C20.1722 2.9218 17.3903 1.72656 14.0603 1.72656C9.23655 1.72656 5.07061 4.43933 3.04248 8.38761L7.03025 11.4227C8.03071 8.50852 10.7988 6.40004 14.0603 6.40004Z" fill="#EB4335"/>
</svg>
