<svg width="29" height="28" viewBox="0 0 29 28" fill="none" xmlns="http://www.w3.org/2000/svg">
<path d="M12.7695 1.50134L1.46765 13.671C1.0386 14.133 0.800094 14.7405 0.800049 15.3714V25.3163C0.800049 25.7496 0.971984 26.1651 1.27803 26.4715C1.58407 26.7778 1.99916 26.9499 2.43197 26.9499H9.07612C9.50893 26.9499 9.92402 26.7778 10.2301 26.4715C10.5361 26.1651 10.708 25.7496 10.708 25.3163V16.5803C10.708 14.7016 11.9832 12.9269 13.8421 12.6656C14.3631 12.5892 14.8944 12.6261 15.3998 12.7736C15.9053 12.9211 16.3732 13.1759 16.7716 13.5205C17.17 13.8651 17.4896 14.2916 17.7087 14.7708C17.9278 15.2501 18.0412 15.771 18.0413 16.2981V25.3163C18.0413 25.7496 18.2132 26.1651 18.5193 26.4715C18.8253 26.7778 19.2404 26.9499 19.6732 26.9499H26.3174C26.7502 26.9499 27.1653 26.7778 27.4713 26.4715C27.7774 26.1651 27.9493 25.7496 27.9493 25.3163V15.3714C27.9495 14.7405 27.7109 14.1329 27.2817 13.671L15.9829 1.50134C15.7776 1.28012 15.529 1.10366 15.2526 0.982994C14.9761 0.862327 14.6777 0.800049 14.3762 0.800049C14.0746 0.800049 13.7762 0.862327 13.4998 0.982994C13.2233 1.10366 12.9747 1.28012 12.7695 1.50134Z" fill="#2E2E2E" stroke="#2E2E2E" stroke-width="1.6" stroke-linecap="round" stroke-linejoin="round"/>
</svg>
