<svg width="20" height="22" viewBox="0 0 20 22" fill="none" xmlns="http://www.w3.org/2000/svg">
<path d="M1 2.72903H19C19.2652 2.72903 19.5196 2.58527 19.7071 2.32937C19.8946 2.07348 20 1.72641 20 1.36452C20 1.00262 19.8946 0.655553 19.7071 0.399657C19.5196 0.143761 19.2652 0 19 0H1C0.734784 0 0.48043 0.143761 0.292893 0.399657C0.105357 0.655553 0 1.00262 0 1.36452C0 1.72641 0.105357 2.07348 0.292893 2.32937C0.48043 2.58527 0.734784 2.72903 1 2.72903Z" fill="#EFEFEF"/>
<path d="M1 9.02102H19C19.2652 9.02102 19.5196 8.87726 19.7071 8.62137C19.8946 8.36547 20 8.0184 20 7.65651C20 7.29462 19.8946 6.94755 19.7071 6.69165C19.5196 6.43575 19.2652 6.29199 19 6.29199H1C0.734784 6.29199 0.48043 6.43575 0.292893 6.69165C0.105357 6.94755 0 7.29462 0 7.65651C0 8.0184 0.105357 8.36547 0.292893 8.62137C0.48043 8.87726 0.734784 9.02102 1 9.02102Z" fill="#EFEFEF"/>
<path d="M1 15.0855H19C19.2652 15.0855 19.5196 14.9417 19.7071 14.6858C19.8946 14.4299 20 14.0829 20 13.721C20 13.3591 19.8946 13.012 19.7071 12.7561C19.5196 12.5002 19.2652 12.3564 19 12.3564H1C0.734784 12.3564 0.48043 12.5002 0.292893 12.7561C0.105357 13.012 0 13.3591 0 13.721C0 14.0829 0.105357 14.4299 0.292893 14.6858C0.48043 14.9417 0.734784 15.0855 1 15.0855Z" fill="#EFEFEF"/>
<path d="M1 21.1499H19C19.2652 21.1499 19.5196 21.0062 19.7071 20.7503C19.8946 20.4944 20 20.1473 20 19.7854C20 19.4235 19.8946 19.0765 19.7071 18.8206C19.5196 18.5647 19.2652 18.4209 19 18.4209H1C0.734784 18.4209 0.48043 18.5647 0.292893 18.8206C0.105357 19.0765 0 19.4235 0 19.7854C0 20.1473 0.105357 20.4944 0.292893 20.7503C0.48043 21.0062 0.734784 21.1499 1 21.1499Z" fill="#EFEFEF"/>
</svg>
