<svg width="31" height="29" viewBox="0 0 31 29" fill="none" xmlns="http://www.w3.org/2000/svg">
<path d="M29.911 23.7865V21.094C29.911 20.9191 29.832 20.7554 29.6909 20.6481C29.5554 20.5409 29.3748 20.507 29.2054 20.5465C27.083 21.0997 25.2146 20.4505 23.4029 19.8184C20.7217 18.8813 17.9501 17.9105 15.2406 21.7658C12.5199 17.9162 9.74843 18.8813 7.06717 19.8127C5.26088 20.4449 3.39246 21.0941 1.27007 20.5465C1.10073 20.5013 0.920098 20.5409 0.784609 20.6481C0.649119 20.7554 0.564466 20.9191 0.564466 21.094V23.7865C0.220143 24.097 0 24.5486 0 25.0453V25.6098C0 26.5411 0.762037 27.3032 1.6934 27.3032H12.8472C13.1972 28.2966 14.1568 28.9966 15.2406 28.9966C16.3243 28.9966 17.2839 28.2966 17.6339 27.3032H28.7877C29.7191 27.3032 30.4811 26.5411 30.4811 25.6098V25.0453C30.4811 24.5486 30.261 24.097 29.9167 23.7865H29.911ZM15.7996 22.9455C18.1647 19.1805 20.2138 19.8974 23.0305 20.8795C24.7239 21.4722 26.6205 22.1383 28.7824 21.7883V23.3519H17.9617C17.194 23.3519 16.4546 23.5438 15.7998 23.9163L15.7996 22.9455ZM1.68811 21.7883C3.85002 22.1383 5.74648 21.4722 7.44005 20.8796C10.2624 19.8917 12.3113 19.1862 14.671 22.9512V23.9107C14.0162 23.5438 13.2768 23.3463 12.5091 23.3463H1.68832V21.7827L1.68811 21.7883Z" fill="#2E2E2E"/>
<path d="M19.5869 17.7072C20.9868 17.7072 22.1214 16.725 22.1327 15.5057V15.4888V7.2702C22.7367 8.06045 23.589 8.89586 24.6841 9.30227C25.0002 9.42081 25.2655 9.61273 25.463 9.8611C25.8355 10.3353 25.875 10.8941 25.5872 11.4021C25.2767 11.9383 24.5542 12.4181 23.6341 12.2827C23.3237 12.2375 23.0415 12.452 22.9963 12.7624C22.9512 13.0729 23.1656 13.3551 23.4761 13.4003C24.7236 13.5809 25.9654 12.9995 26.5694 11.9665C27.0943 11.0577 27.0153 10.0078 26.3605 9.16677C26.0388 8.75472 25.5985 8.43861 25.0905 8.24668C23.1939 7.54111 22.1101 5.04615 22.0988 5.01794C21.9916 4.76957 21.7263 4.6341 21.4666 4.6849C21.207 4.74135 21.0151 4.96713 21.0151 5.23806V13.6431C20.6086 13.406 20.1232 13.2649 19.5982 13.2649C18.1927 13.2649 17.0525 14.264 17.0525 15.4832C17.0525 16.7025 18.1927 17.7016 19.5982 17.7016L19.5869 17.7072Z" fill="#2E2E2E"/>
<path d="M6.1073 14.027C7.51281 14.027 8.65868 13.0336 8.65868 11.8087V11.7805V5.28903L15.1331 3.31906V7.65993C14.7267 7.42285 14.2413 7.28173 13.7163 7.28173C12.3108 7.28173 11.1706 8.28082 11.1706 9.50007C11.1706 10.7193 12.3108 11.7184 13.7163 11.7184C15.1219 11.7184 16.2395 10.7419 16.2564 9.53392C16.2564 9.52263 16.2621 9.51134 16.2621 9.50005V0.570119C16.2621 0.541896 16.2508 0.513673 16.2451 0.485447C16.2451 0.457224 16.2451 0.429001 16.2395 0.400776C16.2395 0.389486 16.2282 0.383842 16.2282 0.372552C16.2169 0.333038 16.1943 0.299174 16.1717 0.265302C16.1548 0.237079 16.1379 0.208856 16.1153 0.180631C16.0927 0.152406 16.0588 0.135473 16.0306 0.112895C16.0024 0.0903162 15.9742 0.0677376 15.9403 0.0508019C15.9121 0.0395126 15.8782 0.0282233 15.8443 0.0225786C15.8048 0.0112893 15.7653 0 15.7258 0H15.6976C15.6694 0 15.6468 0.0112893 15.6186 0.016934C15.5903 0.016934 15.5621 0.016934 15.5339 0.0225786L7.9305 2.33687C7.9305 2.33687 7.91356 2.34816 7.90227 2.34816C7.86276 2.35945 7.83454 2.38203 7.80067 2.4046C7.77245 2.42154 7.74422 2.43847 7.716 2.46105C7.68777 2.48363 7.67084 2.5175 7.64826 2.54572C7.62568 2.57395 7.60311 2.60217 7.58617 2.63604C7.56924 2.66426 7.56359 2.69813 7.55795 2.73199C7.54666 2.77151 7.53537 2.80537 7.53537 2.84489C7.53537 2.85618 7.52972 2.86182 7.52972 2.87311V9.95701C7.12331 9.71994 6.63785 9.57881 6.10727 9.57881C4.70176 9.57881 3.56152 10.5723 3.56152 11.7972C3.56152 13.022 4.70173 14.0155 6.10727 14.0155L6.1073 14.027ZM8.65868 4.10364V3.30209L15.1331 1.33211V2.13367L8.65868 4.10364Z" fill="#2E2E2E"/>
</svg>
