<svg width="23" height="29" viewBox="0 0 23 29" fill="none" xmlns="http://www.w3.org/2000/svg">
<g clip-path="url(#clip0_891_2209)">
<path d="M20.8461 4.81843C18.6771 1.8236 15.155 -0.0210476 11.5033 0.000181279H11.3875C7.6996 0.0367227 4.18514 1.9153 2.0413 4.98548C-0.523757 8.65912 -0.608783 12.9559 1.44068 16.905C3.04274 19.9924 5.28385 22.8247 7.69229 25.4217C8.12807 25.8916 8.5684 26.3538 9.01325 26.8084C9.67798 27.4891 10.3488 28.1531 11.0165 28.8004C11.1479 28.928 11.3222 28.9991 11.5034 28.9991C11.6846 28.9991 11.8589 28.928 11.9903 28.8004C12.6575 28.1535 13.3278 27.4895 13.9919 26.8089C14.4355 26.3542 14.8753 25.8919 15.3113 25.4221C17.6157 22.9338 19.7649 20.2334 21.3493 17.308C21.4656 17.0933 21.5775 16.8764 21.685 16.6572C22.4531 15.0861 22.8924 13.4772 22.9833 11.8828C23.1219 9.43084 22.4346 7.01231 20.8461 4.81843ZM11.5009 20.2436C6.97127 20.2436 3.29918 16.4863 3.29918 11.8513C3.29918 7.21625 6.97127 3.45892 11.5009 3.45892C16.0306 3.45892 19.7025 7.21625 19.7025 11.8513C19.7025 16.4863 16.0306 20.2436 11.5009 20.2436Z" fill="#2E2E2E"/>
<path d="M16.7905 13.2407L11.7977 7.95752V7.03528H12.508C12.5363 7.03524 12.5634 7.02372 12.5833 7.00327C12.6033 6.98281 12.6145 6.95509 12.6145 6.92618V6.53554C12.6145 6.50665 12.6033 6.47894 12.5833 6.45851C12.5634 6.43808 12.5363 6.42661 12.508 6.42661H11.7977V6.00273C11.7977 5.97384 11.7865 5.94613 11.7666 5.9257C11.7466 5.90527 11.7195 5.8938 11.6913 5.8938H11.3088C11.2806 5.8938 11.2535 5.90527 11.2336 5.9257C11.2136 5.94613 11.2024 5.97384 11.2024 6.00273V6.42626H10.4923C10.464 6.42626 10.4369 6.43773 10.4169 6.45815C10.3969 6.47858 10.3857 6.50628 10.3856 6.53519V6.92636C10.3856 6.95529 10.3969 6.98304 10.4169 7.0035C10.4369 7.02396 10.464 7.03546 10.4923 7.03546H11.2024V7.9577L6.20984 13.2405C6.18325 13.2686 6.16533 13.3041 6.15833 13.3426C6.15132 13.381 6.15554 13.4207 6.17045 13.4567C6.18536 13.4927 6.2103 13.5234 6.24217 13.545C6.27403 13.5666 6.31141 13.5781 6.34963 13.5781H8.17037V16.9981C8.17035 17.0333 8.17712 17.0683 8.19031 17.1009C8.20349 17.1335 8.22283 17.1632 8.24721 17.1881C8.2716 17.2131 8.30055 17.2329 8.33241 17.2464C8.36428 17.2599 8.39844 17.2669 8.43293 17.2669H10.1976V15.3528C10.2015 15.002 10.3404 14.6669 10.5843 14.4202C10.8281 14.1735 11.1572 14.0352 11.5001 14.0352C11.843 14.0352 12.172 14.1735 12.4159 14.4202C12.6597 14.6669 12.7987 15.002 12.8026 15.3528V17.2669H14.5672C14.6368 17.2669 14.7036 17.2386 14.7529 17.1882C14.8021 17.1378 14.8298 17.0695 14.8298 16.9982V13.5779H16.6505C16.6886 13.5778 16.7259 13.5663 16.7577 13.5447C16.7894 13.5231 16.8143 13.4925 16.8292 13.4566C16.8441 13.4207 16.8484 13.3811 16.8415 13.3427C16.8346 13.3043 16.8169 13.2689 16.7905 13.2407Z" fill="#2E2E2E"/>
</g>
<defs>
<clipPath id="clip0_891_2209">
<rect width="23" height="29" fill="white"/>
</clipPath>
</defs>
</svg>
