<svg width="37" height="28" viewBox="0 0 37 28" fill="none" xmlns="http://www.w3.org/2000/svg">
<g clip-path="url(#clip0_891_2212)">
<path d="M2.89587 10.0637V17.9369C2.05915 17.6837 1.32544 17.1639 0.803787 16.4548C0.28213 15.7457 0.000366211 14.885 0.000366211 14.0008C0.000366211 13.1166 0.28213 12.256 0.803787 11.5469C1.32544 10.8377 2.05915 10.3179 2.89587 10.0647V10.0637Z" fill="#2E2E2E"/>
<path d="M11.4233 27.296C11.4258 27.3203 11.4232 27.3448 11.4158 27.368C11.4083 27.3913 11.3961 27.4126 11.38 27.4307C11.3639 27.4489 11.3441 27.4634 11.3221 27.4733C11.3001 27.4832 11.2763 27.4884 11.2522 27.4884H6.50771C6.46637 27.4879 6.4266 27.4723 6.39563 27.4446C6.36466 27.4169 6.34455 27.3788 6.33897 27.3374L5.44873 20.4653L10.7132 20.6533L11.4233 27.296Z" fill="#2E2E2E"/>
<path d="M4.72928 8.70415L12.6665 8.25586V19.9628L5.03367 19.6894L4.73265 19.6792H4.71915C4.43435 19.6788 4.1613 19.5641 3.95988 19.3603C3.75846 19.1564 3.6451 18.88 3.64465 18.5916V9.79141C3.6446 9.73914 3.64844 9.68694 3.65613 9.63526C3.694 9.37696 3.82208 9.14097 4.01713 8.97013C4.21217 8.79929 4.46125 8.70492 4.71915 8.70415H4.72928Z" fill="#2E2E2E"/>
<path d="M13.4156 8.11067L26.8114 2.6416V25.5689L13.4156 20.0995V8.11067Z" fill="#2E2E2E"/>
<path d="M29.7653 1.1163V26.8837C29.7653 27.1798 29.6492 27.4637 29.4424 27.673C29.2356 27.8824 28.9552 28 28.6628 28C28.3704 28 28.09 27.8824 27.8832 27.673C27.6765 27.4637 27.5603 27.1798 27.5603 26.8837V1.1163C27.5603 0.820235 27.6765 0.536303 27.8832 0.326956C28.09 0.11761 28.3704 0 28.6628 0C28.9552 0 29.2356 0.11761 29.4424 0.326956C29.6492 0.536303 29.7653 0.820235 29.7653 1.1163Z" fill="#2E2E2E"/>
<path d="M32.0385 11.7303C31.8807 11.7303 31.728 11.6744 31.6067 11.5723C31.4854 11.4701 31.4033 11.3282 31.3746 11.1711C31.346 11.0141 31.3725 10.8518 31.4497 10.7125C31.5269 10.5732 31.6499 10.4657 31.7972 10.4086L35.8924 8.82319C36.0589 8.76142 36.2428 8.76851 36.4042 8.84293C36.5656 8.91736 36.6917 9.05313 36.755 9.22088C36.8183 9.38863 36.8139 9.57489 36.7426 9.73935C36.6714 9.90382 36.5391 10.0333 36.3743 10.0997L32.2794 11.6841C32.2026 11.7143 32.1209 11.73 32.0385 11.7303Z" fill="#2E2E2E"/>
<path d="M36.3254 14.057H36.3031L32.2083 13.9271C32.1196 13.9243 32.0324 13.9039 31.9516 13.867C31.8707 13.83 31.7979 13.7773 31.7372 13.7119C31.6146 13.5797 31.5488 13.4037 31.5544 13.2224C31.56 13.0412 31.6365 12.8696 31.767 12.7454C31.8975 12.6213 32.0714 12.5547 32.2504 12.5604L36.3456 12.6906C36.5246 12.6934 36.6952 12.7681 36.8198 12.8982C36.9444 13.0284 37.0129 13.2033 37.0101 13.3845C37.0073 13.5658 36.9335 13.7385 36.805 13.8647C36.6765 13.9908 36.5037 14.0601 36.3247 14.0573L36.3254 14.057Z" fill="#2E2E2E"/>
<path d="M36.1344 17.8234C36.044 17.8233 35.9544 17.8048 35.8712 17.7691L31.7747 16.0097C31.6919 15.9755 31.6166 15.925 31.5533 15.8611C31.4899 15.7972 31.4398 15.7212 31.4057 15.6375C31.3716 15.5538 31.3543 15.464 31.3547 15.3735C31.3552 15.283 31.3734 15.1934 31.4083 15.1101C31.4433 15.0268 31.4942 14.9513 31.5582 14.888C31.6221 14.8248 31.6979 14.775 31.781 14.7417C31.8641 14.7083 31.953 14.692 32.0424 14.6937C32.1318 14.6954 32.22 14.7151 32.3018 14.7516L36.397 16.511C36.5402 16.5725 36.6581 16.6824 36.7306 16.8219C36.803 16.9613 36.8257 17.1219 36.7946 17.2763C36.7636 17.4308 36.6807 17.5696 36.5602 17.6693C36.4396 17.769 36.2887 17.8234 36.1331 17.8234H36.1344Z" fill="#2E2E2E"/>
</g>
<defs>
<clipPath id="clip0_891_2212">
<rect width="37" height="28" fill="white"/>
</clipPath>
</defs>
</svg>
